<svg width="200" height="200" viewBox="0 0 200 200" fill="none" xmlns="http://www.w3.org/2000/svg">
<mask id="path-1-inside-1_2001_90" fill="white">
<path d="M0 29.6378C0 13.2693 13.2693 0 29.6378 0H170.362C186.731 0 200 13.2693 200 29.6378V170.362C200 186.731 186.731 200 170.362 200H29.6378C13.2693 200 0 186.731 0 170.362V29.6378Z"/>
</mask>
<path d="M0 29.6378C0 13.2693 13.2693 0 29.6378 0H170.362C186.731 0 200 13.2693 200 29.6378V170.362C200 186.731 186.731 200 170.362 200H29.6378C13.2693 200 0 186.731 0 170.362V29.6378Z" fill="#FFF5FD"/>
<path d="M-3.70473 29.6378C-3.70473 11.2232 11.2232 -3.70473 29.6378 -3.70473H181.476C199.891 -3.70473 214.819 11.2232 214.819 29.6378L185.181 29.6378C185.181 15.3154 178.546 3.70473 170.362 3.70473H29.6378C15.3154 3.70473 3.70473 15.3154 3.70473 29.6378L-3.70473 29.6378ZM214.819 170.362C214.819 194.915 194.915 214.819 170.362 214.819H29.6378C11.2232 214.819 -3.70473 199.891 -3.70473 181.476L3.70473 170.362C3.70473 178.546 15.3154 185.181 29.6378 185.181H170.362C178.546 185.181 185.181 178.546 185.181 170.362H214.819ZM29.6378 214.819C11.2232 214.819 -3.70473 199.891 -3.70473 181.476V29.6378C-3.70473 11.2232 11.2232 -3.70473 29.6378 -3.70473L29.6378 3.70473C15.3154 3.70473 3.70473 15.3154 3.70473 29.6378V170.362C3.70473 178.546 15.3154 185.181 29.6378 185.181L29.6378 214.819ZM181.476 -3.70473C199.891 -3.70473 214.819 11.2232 214.819 29.6378V170.362C214.819 194.915 194.915 214.819 170.362 214.819V185.181C178.546 185.181 185.181 178.546 185.181 170.362V29.6378C185.181 15.3154 178.546 3.70473 170.362 3.70473L181.476 -3.70473Z" fill="black" mask="url(#path-1-inside-1_2001_90)"/>
<path d="M83.0013 77.75H70.0013L39.7114 139.175C36.1039 147.658 41.2714 157.83 50.4364 158.903C50.9888 158.968 51.5413 159 52.1263 159C60.2188 159 66.7513 152.467 66.7513 144.375" fill="#A5F49F"/>
<path d="M83.0013 77.75H70.0013L39.7114 139.175C36.1039 147.658 41.2714 157.83 50.4364 158.903C50.9888 158.968 51.5413 159 52.1263 159C60.2188 159 66.7513 152.468 66.7513 144.375" stroke="#087800" stroke-width="10" stroke-miterlimit="2" stroke-linecap="round" stroke-linejoin="round"/>
<path d="M109 77.75H122L152.29 139.175C155.897 147.658 150.73 157.83 141.565 158.903C141.012 158.968 140.46 159 139.875 159C131.782 159 125.25 152.467 125.25 144.375" fill="#A5F49F"/>
<path d="M109 77.75H122L152.29 139.175C155.897 147.658 150.73 157.83 141.565 158.903C141.012 158.968 140.46 159 139.875 159C131.782 159 125.25 152.468 125.25 144.375" stroke="#087800" stroke-width="10" stroke-miterlimit="2" stroke-linecap="round" stroke-linejoin="round"/>
<path d="M70.195 58.25C70.065 57.1775 70 56.105 70 55C70 40.635 81.635 29 96 29C110.365 29 122 40.635 122 55C122 56.105 121.935 57.1775 121.805 58.25H70.195Z" fill="#A5F49F" stroke="#087800" stroke-width="10" stroke-miterlimit="2" stroke-linecap="round" stroke-linejoin="round"/>
<path d="M110.625 159C102.532 159 96 152.467 96 144.375V77.75H109L125.25 144.375C125.25 152.467 118.717 159 110.625 159Z" fill="#A5F49F" stroke="#087800" stroke-width="10" stroke-miterlimit="2" stroke-linecap="round" stroke-linejoin="round"/>
<path d="M81.375 159C89.4675 159 96 152.467 96 144.375V77.75H83L66.75 144.375C66.75 152.467 73.2825 159 81.375 159Z" fill="#A5F49F" stroke="#087800" stroke-width="10" stroke-miterlimit="2" stroke-linecap="round" stroke-linejoin="round"/>
</svg>
