<svg width="134" height="41" viewBox="0 0 134 41" fill="none" xmlns="http://www.w3.org/2000/svg">
<mask id="path-1-inside-1_2001_946" fill="white">
<path d="M0 6.07576C0 2.72021 2.72021 0 6.07576 0H127.924C131.28 0 134 2.72021 134 6.07576V34.9242C134 38.2798 131.28 41 127.924 41H6.07576C2.72021 41 0 38.2798 0 34.9242V6.07576Z"/>
</mask>
<path d="M0 6.07576C0 2.72021 2.72021 0 6.07576 0H127.924C131.28 0 134 2.72021 134 6.07576V34.9242C134 38.2798 131.28 41 127.924 41H6.07576C2.72021 41 0 38.2798 0 34.9242V6.07576Z" fill="white"/>
<path d="M-0.75947 6.07576C-0.75947 2.30077 2.30077 -0.75947 6.07576 -0.75947H130.203C133.978 -0.75947 137.038 2.30077 137.038 6.07576H130.962C130.962 3.13965 129.602 0.75947 127.924 0.75947H6.07576C3.13965 0.75947 0.75947 3.13965 0.75947 6.07576H-0.75947ZM137.038 34.9242C137.038 39.9576 132.958 44.0379 127.924 44.0379H6.07576C2.30077 44.0379 -0.75947 40.9776 -0.75947 37.2027L0.75947 34.9242C0.75947 36.602 3.13965 37.9621 6.07576 37.9621H127.924C129.602 37.9621 130.962 36.602 130.962 34.9242H137.038ZM6.07576 44.0379C2.30077 44.0379 -0.75947 40.9776 -0.75947 37.2027V6.07576C-0.75947 2.30077 2.30077 -0.75947 6.07576 -0.75947V0.75947C3.13965 0.75947 0.75947 3.13965 0.75947 6.07576V34.9242C0.75947 36.602 3.13965 37.9621 6.07576 37.9621V44.0379ZM130.203 -0.75947C133.978 -0.75947 137.038 2.30077 137.038 6.07576V34.9242C137.038 39.9576 132.958 44.0379 127.924 44.0379V37.9621C129.602 37.9621 130.962 36.602 130.962 34.9242V6.07576C130.962 3.13965 129.602 0.75947 127.924 0.75947L130.203 -0.75947Z" fill="black" mask="url(#path-1-inside-1_2001_946)"/>
<path d="M122.943 26.4461C122.943 28.0961 122.283 29.3281 120.963 30.1421C119.665 30.9341 117.971 31.3301 115.881 31.3301C114.803 31.3301 113.714 31.2201 112.614 31.0001C111.536 30.7581 110.502 30.3841 109.512 29.8781L110.106 25.7201L113.406 26.0831V27.9311C113.802 28.0631 114.22 28.1511 114.66 28.1951C115.1 28.2171 115.43 28.2281 115.65 28.2281C116.464 28.2281 117.168 28.0961 117.762 27.8321C118.356 27.5681 118.653 27.1721 118.653 26.6441C118.653 26.0061 118.202 25.5881 117.3 25.3901C116.398 25.1921 115.353 24.9941 114.165 24.7961C112.977 24.5981 111.932 24.1911 111.03 23.5751C110.128 22.9591 109.677 21.9141 109.677 20.4401C109.677 18.6141 110.381 17.3931 111.789 16.7771C113.219 16.1391 114.693 15.8201 116.211 15.8201C118.191 15.8201 120.05 16.2711 121.788 17.1731L122.151 20.9681L118.851 21.3311L118.587 19.2521C117.861 19.0101 117.08 18.8891 116.244 18.8891C115.694 18.8891 115.221 19.0101 114.825 19.2521C114.451 19.4721 114.264 19.8241 114.264 20.3081C114.264 20.9461 114.693 21.3751 115.551 21.5951C116.431 21.7931 117.443 21.9911 118.587 22.1891C119.753 22.3871 120.765 22.7941 121.623 23.4101C122.503 24.0041 122.943 25.0161 122.943 26.4461Z" fill="black"/>
<path d="M107.915 26.3141C107.805 27.6341 107.156 28.8001 105.968 29.8121C104.78 30.8241 103.119 31.3301 100.985 31.3301C98.7632 31.3301 96.9262 30.7031 95.4742 29.4491C94.0442 28.1951 93.3292 26.3251 93.3292 23.8391C93.3292 21.5511 93.9782 19.6481 95.2762 18.1301C96.5962 16.5901 98.4332 15.8201 100.787 15.8201C102.855 15.8201 104.527 16.4141 105.803 17.6021C107.101 18.7901 107.761 20.3521 107.783 22.2881C107.783 23.0141 107.706 23.7291 107.552 24.4331H97.7842C98.0262 26.7871 99.1922 27.9641 101.282 27.9641C102.426 27.9641 103.196 27.6891 103.592 27.1391C104.01 26.5891 104.263 26.0941 104.351 25.6541L107.915 26.3141ZM103.394 21.9581C103.482 21.2101 103.317 20.5061 102.899 19.8461C102.503 19.1861 101.799 18.8561 100.787 18.8561C99.9072 18.8561 99.2252 19.1421 98.7412 19.7141C98.2572 20.2861 97.9492 21.0341 97.8172 21.9581H103.394Z" fill="black"/>
<path d="M85.6459 13.4769V9.05493H89.9029V13.4769H85.6459ZM92.0479 30.9999H83.8309V27.7989H85.8109V19.3509H83.6659V16.1169H90.0679V27.7989H92.0479V30.9999Z" fill="black"/>
<path d="M82.3026 30.9999H76.0656V28.2279C75.6476 29.0859 75.0316 29.8229 74.2176 30.4389C73.4036 31.0329 72.3256 31.3299 70.9836 31.3299C69.0256 31.3299 67.4856 30.6589 66.3636 29.3169C65.2416 27.9749 64.6806 26.1489 64.6806 23.8389C64.6806 21.6169 65.2306 19.7249 66.3306 18.1629C67.4306 16.6009 69.0916 15.8199 71.3136 15.8199C72.5236 15.8199 73.5136 16.0619 74.2836 16.5459C75.0536 17.0299 75.6476 17.6459 76.0656 18.3939V11.5299H73.0956V8.2959H80.3226V27.7989H82.3026V30.9999ZM76.0656 23.4759V23.1129C76.0656 21.8809 75.7356 20.9239 75.0756 20.2419C74.4376 19.5379 73.6346 19.1859 72.6666 19.1859C71.7206 19.1859 70.8846 19.5379 70.1586 20.2419C69.4546 20.9459 69.1026 22.0569 69.1026 23.5749C69.1026 25.0049 69.4326 26.0939 70.0926 26.8419C70.7526 27.5899 71.5336 27.9639 72.4356 27.9639C73.5576 27.9639 74.4376 27.4909 75.0756 26.5449C75.7356 25.5989 76.0656 24.5759 76.0656 23.4759Z" fill="black"/>
<path d="M63.4823 30.9999H57.2453V28.2279C56.8273 29.0859 56.2113 29.8229 55.3973 30.4389C54.5833 31.0329 53.5053 31.3299 52.1633 31.3299C50.2053 31.3299 48.6653 30.6589 47.5433 29.3169C46.4213 27.9749 45.8603 26.1489 45.8603 23.8389C45.8603 21.6169 46.4103 19.7249 47.5103 18.1629C48.6103 16.6009 50.2713 15.8199 52.4933 15.8199C53.7033 15.8199 54.6933 16.0619 55.4633 16.5459C56.2333 17.0299 56.8273 17.6459 57.2453 18.3939V11.5299H54.2753V8.2959H61.5023V27.7989H63.4823V30.9999ZM57.2453 23.4759V23.1129C57.2453 21.8809 56.9153 20.9239 56.2553 20.2419C55.6173 19.5379 54.8143 19.1859 53.8463 19.1859C52.9003 19.1859 52.0643 19.5379 51.3383 20.2419C50.6343 20.9459 50.2823 22.0569 50.2823 23.5749C50.2823 25.0049 50.6123 26.0939 51.2723 26.8419C51.9323 27.5899 52.7133 27.9639 53.6153 27.9639C54.7373 27.9639 55.6173 27.4909 56.2553 26.5449C56.9153 25.5989 57.2453 24.5759 57.2453 23.4759Z" fill="black"/>
<path d="M30.6849 17.1731C31.9829 16.6451 33.0609 16.2931 33.9189 16.1171C34.7989 15.9191 35.8439 15.8201 37.0539 15.8201C38.6599 15.8201 40.0459 16.2381 41.2119 17.0741C42.3779 17.9101 42.9609 19.1751 42.9609 20.8691V27.3371C42.9609 28.1071 43.3019 28.4921 43.9839 28.4921C44.1819 28.4921 44.3909 28.4591 44.6109 28.3931L44.6439 30.6371C43.7859 31.0991 42.8949 31.3301 41.9709 31.3301C40.0129 31.3301 38.9239 30.3511 38.7039 28.3931V28.3601C38.2859 29.1081 37.6809 29.7901 36.8889 30.4061C36.1189 31.0221 35.1289 31.3301 33.9189 31.3301C32.8409 31.3301 31.8069 31.0111 30.8169 30.3731C29.8269 29.7351 29.3319 28.6351 29.3319 27.0731C29.3319 25.2471 30.0579 24.0371 31.5099 23.4431C32.9839 22.8491 34.5679 22.5521 36.2619 22.5521C37.2079 22.5521 38.0219 22.5961 38.7039 22.6841V22.1891C38.7039 21.4191 38.5939 20.6711 38.3739 19.9451C38.1759 19.2191 37.4719 18.8561 36.2619 18.8561C35.8219 18.8561 35.4149 18.8891 35.0409 18.9551C34.6889 18.9991 34.3369 19.1091 33.9849 19.2851L33.4239 21.3971L30.0249 21.0341L30.6849 17.1731ZM38.7039 24.9281V24.7301C38.3519 24.6861 37.9889 24.6421 37.6149 24.5981C37.2629 24.5541 36.9109 24.5321 36.5589 24.5321C35.8109 24.5321 35.1509 24.6751 34.5789 24.9611C34.0069 25.2251 33.7209 25.7641 33.7209 26.5781C33.7209 27.0621 33.8529 27.4691 34.1169 27.7991C34.3809 28.1291 34.8319 28.2941 35.4699 28.2941C36.2179 28.2941 36.9109 28.0301 37.5489 27.5021C38.2089 26.9521 38.5939 26.0941 38.7039 24.9281Z" fill="black"/>
<path d="M27.7551 23.2119C27.7551 25.4119 27.1721 27.3149 26.0061 28.9209C24.8621 30.5269 23.1681 31.3299 20.9241 31.3299C18.6581 31.3299 17.0631 30.4719 16.1391 28.7559C16.0951 29.1299 16.0401 29.5039 15.9741 29.8779C15.9301 30.2519 15.8751 30.6259 15.8091 30.9999H11.5521C11.7061 30.2299 11.8381 29.4599 11.9481 28.6899C12.0581 27.9199 12.1131 27.1609 12.1131 26.4129V11.5299H10.1331V8.2959H16.3701V18.9549C16.7661 18.0969 17.3601 17.3599 18.1521 16.7439C18.9661 16.1279 20.0441 15.8199 21.3861 15.8199C23.2561 15.8199 24.7851 16.4689 25.9731 17.7669C27.1611 19.0649 27.7551 20.8799 27.7551 23.2119ZM23.3331 23.5749C23.3331 22.1449 23.0251 21.0559 22.4091 20.3079C21.7931 19.5599 20.9791 19.1859 19.9671 19.1859C18.8231 19.1859 17.9321 19.6039 17.2941 20.4399C16.6781 21.2759 16.3701 22.2439 16.3701 23.3439V23.7069C16.3701 24.9169 16.6671 25.9399 17.2611 26.7759C17.8771 27.5899 18.7461 27.9969 19.8681 27.9969C20.8361 27.9969 21.6501 27.6449 22.3101 26.9409C22.9921 26.2149 23.3331 25.0929 23.3331 23.5749Z" fill="black"/>
<path d="M113.906 25.6348V27.5547C114.16 27.6194 114.423 27.6672 114.698 27.6953C115.13 27.7168 115.445 27.7275 115.65 27.7275C116.412 27.7275 117.043 27.6044 117.56 27.375C117.802 27.2672 117.947 27.1487 118.03 27.0371C118.109 26.9316 118.153 26.807 118.153 26.6436C118.153 26.4582 118.095 26.3291 117.976 26.2188C117.84 26.0933 117.598 25.9667 117.193 25.8779C116.302 25.6822 115.265 25.4861 114.083 25.2891C112.831 25.0803 111.716 24.6492 110.748 23.9883C109.665 23.2484 109.178 22.016 109.178 20.4404C109.178 19.4651 109.366 18.611 109.772 17.9053C110.182 17.1947 110.795 16.6671 111.586 16.3203L111.866 16.1992C113.271 15.6141 114.72 15.3204 116.211 15.3203C118.141 15.3203 119.966 15.733 121.678 16.5586L122.019 16.7295L122.26 16.8545L122.286 17.125L122.696 21.4111L119.178 21.7979C120.197 22.0306 121.108 22.4273 121.902 22.9951C122.965 23.7127 123.443 24.9136 123.443 26.4463C123.443 28.2562 122.704 29.6556 121.226 30.5674L121.224 30.5684C119.823 31.4229 118.03 31.83 115.882 31.8301C114.77 31.8301 113.647 31.7164 112.517 31.4902L112.505 31.4883C111.386 31.237 110.312 30.8482 109.285 30.3232L108.967 30.1611L109.68 25.1699L113.906 25.6348ZM110.178 20.4404C110.178 21.8124 110.592 22.6701 111.312 23.1621C112.149 23.7331 113.124 24.1154 114.248 24.3027C115.442 24.5017 116.495 24.7012 117.407 24.9014C117.905 25.0106 118.34 25.1928 118.655 25.4854C118.987 25.7928 119.153 26.1915 119.153 26.6436C119.153 27.0079 119.049 27.3463 118.831 27.6367C118.618 27.921 118.317 28.1329 117.966 28.2891C117.294 28.5877 116.517 28.7275 115.65 28.7275C115.417 28.7275 115.077 28.7164 114.636 28.6943L114.61 28.6924C114.136 28.6449 113.681 28.5496 113.248 28.4053L112.906 28.291V26.5303L110.532 26.2695L110.059 29.5889C110.914 29.9968 111.803 30.3048 112.725 30.5117C113.79 30.7239 114.842 30.8301 115.882 30.8301C117.786 30.83 119.306 30.4909 120.474 29.8477L120.703 29.7148C121.863 28.9988 122.443 27.9351 122.443 26.4463C122.443 25.119 122.041 24.2946 121.344 23.8242L121.332 23.8164C120.543 23.2499 119.604 22.8685 118.504 22.6816H118.502C117.352 22.4826 116.331 22.2833 115.441 22.083L115.435 22.0811L115.427 22.0791C114.949 21.9564 114.533 21.7623 114.232 21.4619C113.919 21.1484 113.765 20.7516 113.765 20.3076C113.765 19.6741 114.023 19.1472 114.564 18.8252C115.052 18.527 115.619 18.3887 116.244 18.3887C117.129 18.3887 117.964 18.5169 118.745 18.7773L119.044 18.877L119.083 19.1895L119.285 20.7793L121.606 20.5244L121.316 17.4961C119.72 16.7126 118.02 16.3203 116.211 16.3203C114.766 16.3204 113.361 16.6232 111.993 17.2334L111.99 17.2354C111.375 17.5046 110.932 17.8949 110.639 18.4043C110.342 18.9196 110.178 19.5898 110.178 20.4404ZM114.765 20.3076C114.765 20.5016 114.824 20.6394 114.939 20.7549C115.068 20.8834 115.296 21.013 115.676 21.1104C116.469 21.2885 117.372 21.4654 118.387 21.6445L118.355 21.3936L118.132 19.6357C117.545 19.4723 116.916 19.3887 116.244 19.3887C115.769 19.3887 115.39 19.493 115.086 19.6787L115.079 19.6826C114.878 19.8009 114.765 19.9764 114.765 20.3076Z" fill="black"/>
<path d="M100.787 15.3203C102.955 15.3203 104.756 15.9455 106.141 17.2334L106.397 17.4805C107.638 18.7386 108.261 20.3522 108.283 22.2822V22.2881C108.283 23.0497 108.203 23.8007 108.041 24.54L107.955 24.9326H98.3633C98.5169 25.749 98.8039 26.3343 99.1953 26.7295C99.6613 27.1999 100.334 27.4639 101.282 27.4639C102.375 27.4639 102.934 27.1972 103.187 26.8467L103.194 26.8359C103.589 26.317 103.794 25.892 103.861 25.5557L103.958 25.0723L108.006 25.8223L108.451 25.9043L108.413 26.3555C108.29 27.8303 107.561 29.1112 106.292 30.1924C104.985 31.3056 103.194 31.8301 100.985 31.8301C98.6635 31.8301 96.7044 31.1718 95.1475 29.8271L95.1445 29.8252C93.5753 28.4491 92.8291 26.4219 92.8291 23.8389C92.8291 21.4502 93.5099 19.4263 94.8965 17.8047L95.1709 17.502C96.577 16.0368 98.4676 15.3203 100.787 15.3203ZM100.787 18.3564C101.912 18.3564 102.814 18.7313 103.328 19.5889C103.8 20.3391 103.992 21.1539 103.891 22.0166L103.839 22.458H97.2412L97.3223 21.8877C97.4643 20.8934 97.8013 20.0501 98.3594 19.3906C98.9553 18.6865 99.7886 18.3565 100.787 18.3564ZM100.787 19.3564C100.026 19.3565 99.4951 19.5974 99.123 20.0371C98.8098 20.4074 98.5734 20.8764 98.4248 21.458H102.914C102.894 20.9916 102.75 20.5457 102.477 20.1133L102.471 20.1035C102.193 19.6411 101.686 19.3564 100.787 19.3564ZM93.8291 23.8389C93.8291 26.2259 94.512 27.9383 95.8008 29.0703C97.1478 30.2337 98.8633 30.8301 100.985 30.8301C103.044 30.8301 104.575 30.3421 105.644 29.4316C106.607 28.6108 107.163 27.7076 107.354 26.7188L104.699 26.2266C104.546 26.6219 104.304 27.0279 103.99 27.4414L103.989 27.4404C103.448 28.1822 102.472 28.4639 101.282 28.4639C100.141 28.4639 99.1853 28.1399 98.4854 27.4336C97.7939 26.7356 97.4149 25.7273 97.2871 24.4844L97.2305 23.9326H107.139C107.233 23.3932 107.283 22.8474 107.283 22.2939L107.272 21.958C107.184 20.3037 106.577 18.9876 105.466 17.9707L105.463 17.9678C104.296 16.8816 102.754 16.3203 100.787 16.3203C98.6928 16.3203 97.0787 16.9572 95.8887 18.1992L95.6562 18.4551C94.4469 19.8694 93.8291 21.6517 93.8291 23.8389Z" fill="black"/>
<path d="M90.5684 15.6172V27.2988H92.5479V31.5H83.3311V27.2988H85.3105V19.8506H83.166V15.6172H90.5684ZM84.166 18.8506H86.3105V28.2988H84.3311V30.5H91.5479V28.2988H89.5684V16.6172H84.166V18.8506ZM90.4033 8.55469V13.9766H85.1455V8.55469H90.4033ZM86.1455 12.9766H89.4033V9.55469H86.1455V12.9766Z" fill="black"/>
<path d="M80.8223 7.7959V27.2988H82.8027V31.5H75.5654V29.8662C75.2574 30.2168 74.9102 30.5423 74.5195 30.8379L74.5127 30.8428C73.5887 31.517 72.3965 31.8301 70.9834 31.8301C68.8974 31.83 67.2095 31.1076 65.9805 29.6377C64.7621 28.1804 64.1807 26.2281 64.1807 23.8389C64.1807 21.5312 64.7533 19.5344 65.9219 17.875C67.1318 16.157 68.9594 15.3203 71.3135 15.3203C72.5873 15.3203 73.6778 15.5749 74.5498 16.123C74.9259 16.3595 75.2639 16.6276 75.5654 16.9248V12.0303H72.5957V7.7959H80.8223ZM75.5654 23.4756V23.1133C75.5654 21.9709 75.2611 21.1533 74.7158 20.5898L74.7109 20.584L74.7051 20.5781C74.164 19.981 73.4967 19.6856 72.667 19.6855C71.8606 19.6855 71.1466 19.9803 70.5068 20.6006C69.9389 21.1722 69.6025 22.1259 69.6025 23.5752C69.6026 24.9353 69.9173 25.8868 70.4678 26.5107C71.0441 27.1639 71.6932 27.4639 72.4355 27.4639C73.3879 27.4639 74.1142 27.0766 74.6611 26.2656L74.665 26.2588C75.2695 25.3924 75.5654 24.4681 75.5654 23.4756ZM65.1807 23.8389C65.1807 26.0695 65.7216 27.7694 66.7471 28.9961C67.762 30.21 69.1537 30.83 70.9834 30.8301C72.2525 30.8301 73.2161 30.5495 73.9199 30.0371C74.6736 29.4658 75.2357 28.7898 75.6162 28.0088L76.5654 28.2275V30.5H81.8027V28.2988H79.8223V8.7959H73.5957V11.0303H76.5654V20.3135L75.6289 18.6377C75.2543 17.9675 74.7209 17.4119 74.0176 16.9697C73.3496 16.5498 72.4597 16.3203 71.3135 16.3203C69.2237 16.3203 67.7293 17.0453 66.7393 18.4512C65.708 19.9157 65.1807 21.7028 65.1807 23.8389ZM76.5654 23.4756C76.5654 24.6803 76.2016 25.7995 75.4893 26.8232L75.4902 26.8242C74.7612 27.9052 73.7271 28.4639 72.4355 28.4639C71.374 28.4639 70.4614 28.0156 69.7178 27.1729C68.9483 26.3008 68.6026 25.0748 68.6025 23.5752C68.6025 21.9931 68.9679 20.7257 69.8047 19.8887L69.8105 19.8828C70.6227 19.0953 71.5815 18.6855 72.667 18.6855C73.7729 18.6856 74.7116 19.0955 75.4463 19.9062H75.4453C76.2124 20.7058 76.5654 21.7979 76.5654 23.1133V23.4756Z" fill="black"/>
<path d="M62.002 7.7959V27.2988H63.9824V31.5H56.7451V29.8662C56.437 30.2168 56.0899 30.5423 55.6992 30.8379L55.6924 30.8428C54.7684 31.517 53.5762 31.8301 52.1631 31.8301C50.0771 31.83 48.3892 31.1076 47.1602 29.6377C45.9417 28.1804 45.3604 26.2281 45.3604 23.8389C45.3604 21.5312 45.933 19.5344 47.1016 17.875C48.3115 16.157 50.1391 15.3203 52.4932 15.3203C53.767 15.3203 54.8575 15.5749 55.7295 16.123C56.1056 16.3595 56.4436 16.6276 56.7451 16.9248V12.0303H53.7754V7.7959H62.002ZM56.7451 23.4756V23.1133C56.7451 21.9709 56.4407 21.1533 55.8955 20.5898L55.8906 20.584L55.8848 20.5781C55.3437 19.981 54.6764 19.6856 53.8467 19.6855C53.0403 19.6855 52.3263 19.9803 51.6865 20.6006C51.1186 21.1722 50.7822 22.1259 50.7822 23.5752C50.7823 24.9353 51.097 25.8868 51.6475 26.5107C52.2238 27.1639 52.8729 27.4639 53.6152 27.4639C54.5676 27.4639 55.2939 27.0766 55.8408 26.2656L55.8447 26.2588C56.4492 25.3924 56.7451 24.4681 56.7451 23.4756ZM46.3604 23.8389C46.3604 26.0695 46.9013 27.7694 47.9268 28.9961C48.9417 30.21 50.3334 30.83 52.1631 30.8301C53.4322 30.8301 54.3958 30.5495 55.0996 30.0371C55.8533 29.4658 56.4154 28.7898 56.7959 28.0088L57.7451 28.2275V30.5H62.9824V28.2988H61.002V8.7959H54.7754V11.0303H57.7451V20.3135L56.8086 18.6377C56.434 17.9675 55.9006 17.4119 55.1973 16.9697C54.5293 16.5498 53.6394 16.3203 52.4932 16.3203C50.4034 16.3203 48.909 17.0453 47.9189 18.4512C46.8877 19.9157 46.3604 21.7028 46.3604 23.8389ZM57.7451 23.4756C57.7451 24.6803 57.3813 25.7995 56.6689 26.8232L56.6699 26.8242C55.9409 27.9052 54.9068 28.4639 53.6152 28.4639C52.5536 28.4639 51.6411 28.0156 50.8975 27.1729C50.128 26.3008 49.7823 25.0748 49.7822 23.5752C49.7822 21.9931 50.1476 20.7257 50.9844 19.8887L50.9902 19.8828C51.8024 19.0953 52.7612 18.6855 53.8467 18.6855C54.9526 18.6856 55.8913 19.0955 56.626 19.9062C57.3931 20.7058 57.7451 21.7979 57.7451 23.1133V23.4756Z" fill="black"/>
<path d="M39.2041 28.3604C39.3076 29.2471 39.5975 29.844 40.0195 30.2236C40.445 30.6061 41.073 30.83 41.9707 30.8301C42.7131 30.8301 43.4342 30.6649 44.1387 30.3311L44.1191 28.9863C44.0741 28.9889 44.0292 28.9922 43.9844 28.9922C43.5497 28.9922 43.1365 28.8665 42.8428 28.5352C42.5592 28.215 42.4609 27.7851 42.4609 27.3369V20.8691C42.4609 19.3033 41.9309 18.2048 40.9209 17.4805C39.8498 16.7125 38.5682 16.3203 37.0537 16.3203C35.8691 16.3203 34.8624 16.4168 34.0283 16.6045L34.0195 16.6064C33.2589 16.7625 32.2977 17.0689 31.1299 17.5332L30.6064 20.5928L33.0498 20.8535L33.502 19.1562L33.5596 18.9385L33.7617 18.8379C34.155 18.6413 34.557 18.5127 34.9668 18.46C35.3698 18.3897 35.802 18.3565 36.2617 18.3564C36.9081 18.3564 37.4763 18.4513 37.9268 18.6836C38.3916 18.9233 38.7115 19.3008 38.8516 19.7998C39.086 20.5735 39.2041 21.3711 39.2041 22.1895V23.2529L38.6396 23.1797C37.9851 23.0953 37.1935 23.0518 36.2617 23.0518C34.6277 23.0518 33.1079 23.3388 31.6973 23.9072C31.0606 24.1681 30.6056 24.5522 30.3047 25.0537C30.0003 25.5612 29.832 26.2251 29.832 27.0732C29.8321 28.5271 30.286 29.4364 31.0879 29.9531C32.0048 30.544 32.946 30.8301 33.9189 30.8301C35.0418 30.8301 35.9136 30.5456 36.5762 30.0156L36.582 30.0117C37.3301 29.4299 37.8873 28.7967 38.2676 28.1162L39.2041 26.4404V28.3604ZM36.5586 24.0322C36.9314 24.0322 37.3044 24.055 37.6768 24.1016C38.0509 24.1456 38.4132 24.1894 38.7656 24.2334L39.2041 24.2891V24.9512L39.2021 24.9746C39.0844 26.223 38.6627 27.2243 37.8691 27.8857L37.8682 27.8867C37.1508 28.4804 36.3468 28.7939 35.4697 28.7939C34.7591 28.7939 34.1258 28.6103 33.7266 28.1113C33.3815 27.68 33.2207 27.1583 33.2207 26.5781C33.2207 26.1156 33.3022 25.6908 33.4941 25.3291C33.6902 24.9597 33.9874 24.6831 34.3691 24.5068C35.0179 24.1854 35.752 24.0323 36.5586 24.0322ZM34.2207 26.5781C34.2207 26.9659 34.3249 27.2577 34.5078 27.4863C34.6366 27.6473 34.9046 27.7939 35.4697 27.7939C36.0881 27.7939 36.6704 27.5795 37.2285 27.1182L37.3252 27.0322C37.7514 26.6317 38.0448 26.0291 38.1689 25.1689C37.9682 25.1445 37.7642 25.1191 37.5566 25.0947L37.5527 25.0938C37.2212 25.0523 36.8896 25.0322 36.5586 25.0322C35.8753 25.0323 35.2943 25.1624 34.8027 25.4082L34.7959 25.4121L34.7881 25.415C34.5981 25.5028 34.4669 25.6284 34.377 25.7979C34.283 25.9751 34.2207 26.2268 34.2207 26.5781ZM43.4609 27.3369C43.4609 27.6588 43.5334 27.8072 43.5908 27.8721C43.6381 27.9254 43.7374 27.9922 43.9844 27.9922C44.1264 27.9921 44.2865 27.9681 44.4668 27.9141L45.1016 27.7236L45.1436 30.6299L45.1484 30.9336L44.8809 31.0771C43.9541 31.5761 42.982 31.8301 41.9707 31.8301C40.9107 31.83 40.015 31.5641 39.3516 30.9678C38.9456 30.6028 38.6527 30.1369 38.459 29.5879C38.1017 30.0177 37.682 30.4206 37.2002 30.7959L37.2012 30.7969C36.3239 31.4986 35.2158 31.8301 33.9189 31.8301C32.736 31.8301 31.6089 31.478 30.5459 30.793C29.368 30.0338 28.8321 28.743 28.832 27.0732C28.832 26.0959 29.026 25.2414 29.4473 24.5391C29.8719 23.8313 30.5063 23.3135 31.3203 22.9805L31.3232 22.9795C32.8604 22.3601 34.5081 22.0518 36.2617 22.0518C36.9777 22.0518 37.6251 22.0764 38.2021 22.127C38.1964 21.4273 38.0951 20.7487 37.8955 20.0898L37.8916 20.0762C37.8316 19.8564 37.7034 19.6933 37.4688 19.5723C37.2152 19.4415 36.8253 19.3564 36.2617 19.3564C35.8465 19.3565 35.4691 19.3871 35.1279 19.4473L35.1025 19.4512C34.8754 19.4796 34.6436 19.5422 34.4062 19.6416L33.9072 21.5254L33.7969 21.9395L33.3711 21.8945L29.4424 21.4746L30.2393 16.8145L30.4961 16.71C31.8078 16.1764 32.918 15.8117 33.8184 15.627C34.7421 15.4201 35.8226 15.3203 37.0537 15.3203C38.7512 15.3203 40.242 15.7639 41.5029 16.668C42.8247 17.6157 43.4609 19.0472 43.4609 20.8691V27.3369Z" fill="black"/>
<path d="M27.2549 23.2119C27.2549 20.9634 26.6837 19.2837 25.6045 18.1045C24.5177 16.9171 23.1254 16.3203 21.3857 16.3203C20.1188 16.3204 19.1573 16.6105 18.4541 17.1426C17.7239 17.7117 17.1838 18.3851 16.8242 19.1641L15.8701 18.9551V8.7959H10.6328V11.0303H12.6133V26.4131C12.6133 27.1856 12.5566 27.9683 12.4434 28.7607C12.3605 29.3405 12.2657 29.9203 12.1582 30.5H15.3838C15.4188 30.2731 15.4509 30.0462 15.4775 29.8193L15.4795 29.8057L15.4814 29.791C15.5458 29.4264 15.5997 29.0616 15.6426 28.6973L15.8281 27.123L16.5791 28.5186C17.4 30.043 18.8058 30.83 20.9238 30.8301C23.0318 30.8301 24.5625 30.0854 25.5986 28.6309L25.6016 28.627C26.6988 27.1156 27.2549 25.3183 27.2549 23.2119ZM15.8701 23.3438C15.8702 22.1439 16.2085 21.0707 16.8916 20.1436L16.8965 20.1367C17.6382 19.1648 18.6828 18.6856 19.9668 18.6855C21.1206 18.6855 22.0792 19.1212 22.7949 19.9902C23.5126 20.8617 23.833 22.0826 23.833 23.5752C23.833 25.0568 23.5226 26.2666 22.8203 27.1182L22.6748 27.2832C21.92 28.0883 20.9738 28.4971 19.8682 28.4971C18.6075 28.4971 17.5831 28.0305 16.8623 27.0781L16.8574 27.0713L16.8535 27.0654C16.1892 26.1305 15.8701 25.0016 15.8701 23.707V23.3438ZM16.8701 23.707C16.8701 24.8304 17.1442 25.7461 17.666 26.4824C18.1768 27.1526 18.8888 27.4971 19.8682 27.4971C20.6984 27.4971 21.3802 27.2014 21.9453 26.5986C22.5041 26.0038 22.833 25.0307 22.833 23.5752C22.833 22.2079 22.5376 21.2505 22.0234 20.626C21.5072 19.9991 20.837 19.6855 19.9668 19.6855C18.9631 19.6856 18.2256 20.0432 17.6914 20.7432C17.1459 21.4864 16.8702 22.3469 16.8701 23.3438V23.707ZM28.2549 23.2119C28.2549 25.5054 27.6458 27.5142 26.4111 29.2148L26.4102 29.2139C25.1584 30.969 23.3023 31.8301 20.9238 31.8301C19.0201 31.83 17.5101 31.2497 16.4521 30.0693C16.4099 30.4085 16.3616 30.7479 16.3018 31.0869L16.2285 31.5H10.9424L11.0615 30.9023C11.2137 30.1413 11.3444 29.3799 11.4531 28.6191C11.5599 27.8717 11.6133 27.1364 11.6133 26.4131V12.0303H9.63281V7.7959H16.8701V17.2734C17.1579 16.9412 17.4817 16.632 17.8447 16.3496L17.8506 16.3457C18.7752 15.646 19.9692 15.3204 21.3857 15.3203C23.3861 15.3203 25.0526 16.0211 26.3418 17.4297C27.6385 18.8465 28.2549 20.7966 28.2549 23.2119Z" fill="black"/>
</svg>
